<svg width="52" height="17" viewBox="0 0 52 17" fill="none" xmlns="http://www.w3.org/2000/svg">
<path fill-rule="evenodd" clip-rule="evenodd" d="M48.8407 3.13885C48.8422 3.7447 48.6199 4.69056 47.923 5.35921C47.7337 5.54201 47.5234 5.70389 47.2961 5.84182C46.9692 6.04535 46.7315 6.18701 46.8652 6.52607C46.9959 6.85804 47.4001 6.75415 47.7839 6.67057C47.9072 6.64176 50.3126 6.08596 50.3433 6.08454C50.6534 6.02809 50.9744 6.08757 51.2397 6.25065C51.5051 6.41373 51.6945 6.66791 51.7686 6.96051L51.9652 7.73731C52.0397 8.03003 51.9936 8.33885 51.8363 8.60007C51.679 8.86129 51.4225 9.05499 51.1198 9.14121C51.0926 9.15254 48.4638 9.76359 48.4594 9.76454C47.9602 9.88731 47.668 10.1253 47.67 10.5862C47.67 10.7916 47.7953 11.015 47.9493 11.2001C47.9493 11.2001 50.8158 14.5797 50.8301 14.6062C51.0174 14.8487 51.1 15.1506 51.0608 15.4495C51.0217 15.7483 50.8638 16.0215 50.6196 16.2127L49.9709 16.7179C49.7268 16.9085 49.4151 17.002 49.1006 16.979C48.7861 16.956 48.4929 16.8184 48.2821 16.5947C48.2588 16.5758 46.4784 14.4947 46.2897 14.2733C46.101 14.0532 45.8638 13.717 45.534 13.7184C45.2061 13.7184 44.9704 14.0565 44.7822 14.2775C44.5945 14.4995 42.824 16.589 42.8022 16.6074C42.5925 16.8323 42.3001 16.9715 41.9856 16.9961C41.6711 17.0207 41.3588 16.9289 41.1134 16.7397C41.108 16.7349 40.4627 16.2372 40.4627 16.2372C40.2178 16.0471 40.0586 15.7748 40.0177 15.4762C39.9768 15.1776 40.0573 14.8754 40.2428 14.6317C40.2567 14.6052 43.1068 11.2119 43.1068 11.2119C43.2593 11.0263 43.3836 10.802 43.3831 10.5966C43.3812 10.1357 43.0895 9.89912 42.5888 9.7787C42.5843 9.7787 39.9526 9.17899 39.9259 9.16813C39.6227 9.08326 39.3652 8.89075 39.2065 8.63027C39.0477 8.36979 38.9998 8.06117 39.0725 7.768C39.0735 7.76092 39.2642 6.99214 39.2652 6.98978C39.338 6.69697 39.526 6.44202 39.7903 6.27766C40.0547 6.1133 40.3752 6.05211 40.6855 6.10674C40.7153 6.10674 43.1241 6.65357 43.2479 6.68143C43.6318 6.76265 44.0379 6.86559 44.1661 6.53268C44.2974 6.19268 44.0596 6.05196 43.7318 5.85032C43.5035 5.71359 43.2922 5.55264 43.1018 5.37055C42.4016 4.70614 42.1743 3.76028 42.1728 3.15443C42.1688 1.41667 43.6813 0.00473415 45.4988 1.18624e-05C47.3164 -0.00471042 48.8368 1.40108 48.8407 3.13885ZM4.67046 13.6471C4.52684 13.6471 3.97613 13.5753 3.67304 13.0469L0.137497 7.05684C-0.225021 6.42218 0.201879 5.88385 0.580245 5.75021L1.52071 5.34741C2.02636 5.13113 2.63501 5.35969 2.86282 5.86543L5.08052 10.1291H5.1137L7.33437 5.86543C7.56219 5.36016 8.16985 5.13113 8.67648 5.34741L9.61695 5.75021C9.99482 5.88385 10.4217 6.42218 10.0592 7.05684L6.52366 13.0469C6.42533 13.2203 6.2818 13.3665 6.10691 13.4716C5.93203 13.5766 5.73169 13.6369 5.52525 13.6466L4.67046 13.6471ZM20.2053 13.6471C19.9988 13.6373 19.7986 13.5769 19.6237 13.4718C19.4489 13.3667 19.3055 13.2203 19.2073 13.0469L15.6713 7.05684C15.3083 6.42218 15.7362 5.88385 16.1145 5.75021L17.0545 5.34741C17.5607 5.13113 18.1678 5.35969 18.3966 5.86543L20.6153 10.1291H20.648L22.8682 5.86543C23.0965 5.36016 23.7042 5.13113 24.2103 5.34741L25.1508 5.75021C25.5286 5.88385 25.956 6.42218 25.594 7.05684L22.058 13.0469C21.9597 13.2204 21.8162 13.3667 21.6413 13.4718C21.4664 13.5768 21.266 13.6371 21.0596 13.6466L20.2053 13.6471ZM30.5811 5.29452C33.0197 5.29452 34.9942 7.18339 34.9942 9.51237C34.9942 11.8428 33.0197 13.7321 30.5816 13.7321C28.145 13.7321 26.169 11.8428 26.169 9.51237C26.169 7.18387 28.1445 5.29452 30.5811 5.29452ZM14.5927 2.89329C14.5927 3.80656 13.8181 4.54606 12.8633 4.54606C12.6358 4.54593 12.4107 4.50307 12.2006 4.41993C11.9906 4.33679 11.7998 4.21499 11.6391 4.0615C11.4785 3.908 11.3511 3.72583 11.2643 3.52538C11.1776 3.32493 11.1331 3.11014 11.1334 2.89329C11.1334 1.98002 11.9079 1.24053 12.8633 1.24053C13.0906 1.24078 13.3157 1.28372 13.5257 1.36692C13.7356 1.45011 13.9264 1.57192 14.087 1.72539C14.2475 1.87887 14.3749 2.061 14.4616 2.26139C14.5484 2.46177 14.5929 2.6765 14.5927 2.89329ZM30.5816 11.1784C31.0442 11.1776 31.4876 11.0017 31.8143 10.6893C32.1409 10.3768 32.324 9.95351 32.3234 9.51237C32.3238 9.07144 32.1405 8.64841 31.8139 8.33627C31.4873 8.02413 31.044 7.84843 30.5816 7.84781C30.3526 7.84805 30.1259 7.8913 29.9144 7.97509C29.703 8.05888 29.5109 8.18156 29.3492 8.33613C29.1874 8.4907 29.0592 8.67413 28.9718 8.87595C28.8844 9.07777 28.8396 9.29403 28.8398 9.51237C28.8394 9.73082 28.8842 9.9472 28.9715 10.1492C29.0588 10.3511 29.187 10.5347 29.3488 10.6894C29.5105 10.8441 29.7026 10.9669 29.9142 11.0508C30.1257 11.1347 30.3525 11.1781 30.5816 11.1784ZM11.3582 6.4014C11.3582 5.83804 11.8351 5.38141 12.4245 5.38141H13.3169C13.9063 5.38141 14.3837 5.83804 14.3837 6.4014V12.6276C14.3837 13.191 13.9063 13.6471 13.3169 13.6471H12.4245C12.2842 13.647 12.1453 13.6205 12.0158 13.5692C11.8863 13.5178 11.7686 13.4426 11.6696 13.3479C11.5706 13.2532 11.4921 13.1407 11.4387 13.0171C11.3852 12.8934 11.3579 12.7609 11.3582 12.6271V6.4014Z" fill="#660099"/>
</svg>
